<?xml version="1.0" standalone="no"?>
<!DOCTYPE svg PUBLIC "-//W3C//DTD SVG 20010904//EN"
 "http://www.w3.org/TR/2001/REC-SVG-20010904/DTD/svg10.dtd">
<svg version="1.0" xmlns="http://www.w3.org/2000/svg"
 width="300.000000pt" height="225.000000pt" viewBox="0 0 300.000000 225.000000"
 preserveAspectRatio="xMidYMid meet">
<metadata>
Created by potrace 1.10, written by Peter Selinger 2001-2011
</metadata>
<g transform="translate(0.000000,225.000000) scale(0.100000,-0.100000)"
fill="#000000" stroke="none">
<path d="M1159 1787 c-19 -12 -87 -90 -152 -172 -185 -235 -207 -265 -207
-291 l0 -24 208 0 c136 0 212 4 219 11 8 8 13 8 17 0 5 -8 121 -11 375 -11
366 0 368 0 412 23 35 19 51 36 77 88 23 43 32 73 29 93 -3 20 4 41 19 64 30
44 32 121 6 172 -34 64 -59 70 -304 70 l-216 0 -32 -82 c-77 -200 -120 -318
-120 -329 0 -7 -3 -10 -6 -6 -4 3 -17 75 -30 159 -29 182 -37 211 -71 238 -21
16 -41 20 -108 20 -69 0 -87 -4 -116 -23z m215 -13 c29 -28 35 -50 66 -235 17
-101 32 -188 34 -194 2 -9 29 57 141 348 l37 97 212 0 c225 0 243 -4 278 -50
27 -37 27 -129 -1 -169 -12 -17 -21 -45 -21 -65 0 -81 -63 -167 -134 -185 -29
-7 -167 -11 -384 -11 -299 0 -341 2 -346 16 -5 14 -8 14 -28 0 -18 -13 -57
-16 -215 -16 -184 0 -193 1 -193 19 0 24 298 405 342 437 27 21 43 24 114 24
62 0 87 -4 98 -16z"/>
<path d="M1148 1733 c-64 -69 -308 -383 -308 -398 0 -13 27 -15 181 -15 l181
0 29 30 c23 22 31 26 34 15 3 -8 7 -22 10 -30 3 -12 23 -15 89 -15 47 0 87 3
89 8 8 16 -60 392 -77 416 -16 25 -21 26 -104 26 l-88 0 -36 -37z m198 12 c23
-15 30 -44 65 -254 11 -68 21 -129 22 -135 1 -7 -24 -12 -67 -14 -75 -3 -86 3
-86 51 0 15 -2 27 -5 27 -3 0 -21 -18 -41 -40 l-36 -40 -169 0 c-93 0 -169 3
-169 7 0 4 24 30 53 57 29 28 66 69 82 91 16 22 34 45 40 51 5 6 19 23 30 39
11 15 31 42 45 59 14 17 32 43 39 58 8 15 28 34 45 42 40 20 125 20 152 1z"/>
<path d="M1182 1544 c-42 -54 -62 -88 -62 -108 0 -24 2 -27 15 -16 8 7 12 17
8 23 -4 7 14 8 56 4 45 -5 63 -3 66 6 3 6 -1 48 -8 91 l-13 80 -62 -80z m62
-31 l6 -43 -50 0 -50 0 37 50 c20 27 40 47 44 42 3 -4 9 -26 13 -49z"/>
<path d="M1581 1558 c-45 -117 -83 -217 -84 -223 -2 -12 313 -19 420 -10 93 8
129 32 167 108 23 45 27 62 19 80 -8 17 -4 29 19 61 30 42 34 69 18 128 -19
65 -29 68 -266 68 l-211 0 -82 -212z m484 194 c20 -5 36 -20 47 -43 27 -52 23
-93 -13 -133 -26 -30 -29 -38 -19 -57 9 -17 8 -30 -4 -63 -24 -61 -62 -94
-125 -106 -53 -10 -431 -15 -431 -5 0 2 12 31 27 62 35 77 113 281 113 296 0
3 4 17 9 31 l10 24 178 1 c98 1 192 -2 208 -7z"/>
<path d="M1777 1599 c-23 -62 -14 -75 21 -31 26 30 31 32 92 32 56 -1 63 -2
48 -14 -10 -7 -18 -23 -18 -34 0 -21 1 -21 26 3 19 18 25 31 22 57 l-3 33 -85
3 -85 3 -18 -52z m173 24 c-48 -7 -150 -8 -150 -1 0 8 139 16 155 8 6 -2 3 -6
-5 -7z"/>
<path d="M1732 1484 c-12 -21 -3 -66 12 -61 6 3 10 9 9 15 -2 6 27 12 72 14
41 2 75 2 75 0 0 -1 -10 -6 -22 -11 -16 -6 -18 -9 -6 -13 22 -9 35 3 43 40 l7
32 -91 0 c-72 0 -92 -3 -99 -16z m126 -11 c-21 -2 -55 -2 -75 0 -21 2 -4 4 37
4 41 0 58 -2 38 -4z"/>
<path d="M548 1017 c-56 -46 -108 -120 -108 -154 l0 -33 60 0 c33 0 60 -4 60
-9 0 -4 -23 -70 -51 -145 -27 -75 -47 -141 -44 -146 4 -6 57 -10 125 -10 140
0 119 -19 189 172 l49 133 41 3 c34 3 47 11 87 55 26 29 44 45 41 37 -3 -8
-38 -97 -77 -197 -39 -101 -68 -187 -65 -193 4 -6 95 -10 243 -10 l237 0 54
44 c53 44 112 130 104 154 -3 7 -25 12 -60 12 l-56 0 67 61 c36 33 66 67 66
75 0 9 23 43 50 77 28 34 49 69 48 77 -3 13 -70 15 -518 17 l-515 3 -27 -23z
m482 -8 c0 -15 -61 -97 -99 -133 -20 -20 -45 -32 -73 -35 l-42 -6 -56 -147
-55 -148 -112 0 c-62 0 -113 2 -113 4 0 2 23 65 50 140 28 75 50 140 50 146 0
6 -26 10 -60 10 -59 0 -60 0 -60 28 0 21 16 46 56 90 l56 62 229 0 c162 0 229
-3 229 -11z m548 2 c10 -6 -1 -26 -43 -79 -31 -40 -51 -72 -45 -72 6 0 -22
-29 -62 -66 -40 -36 -74 -69 -76 -75 -2 -5 25 -9 63 -9 l66 0 -23 -41 c-13
-23 -45 -61 -72 -85 l-48 -44 -234 0 -233 0 19 53 c14 41 81 220 151 405 l9
22 257 0 c142 0 264 -4 271 -9z"/>
<path d="M521 943 c-28 -32 -51 -64 -51 -70 0 -9 21 -13 70 -13 39 0 70 -2 70
-5 0 -3 -25 -71 -55 -151 -30 -81 -55 -149 -55 -151 0 -2 44 -2 97 -1 l97 3
56 150 55 150 45 3 c50 4 81 27 131 100 l30 42 -220 0 -219 0 -51 -57z m449
18 c-4 -9 -23 -30 -42 -48 -27 -26 -43 -32 -83 -35 l-50 -3 -57 -150 -56 -150
-81 -3 -82 -3 26 50 c14 28 35 77 46 108 12 32 25 63 29 68 5 6 10 26 12 45
l3 35 -72 -3 c-40 -1 -73 1 -73 5 0 3 24 28 53 54 l52 49 192 -2 c174 0 191
-2 183 -17z"/>
<path d="M979 783 c-46 -119 -85 -220 -87 -225 -2 -4 95 -8 216 -8 l219 0 47
41 c40 35 76 84 76 103 0 3 -33 6 -74 8 l-74 3 74 65 c41 36 74 69 74 73 0 5
-56 7 -125 5 -69 -2 -125 0 -125 4 0 4 59 9 132 10 l132 3 48 60 c26 32 48 63
48 67 0 4 -112 8 -249 8 l-248 0 -84 -217z m524 151 c-20 -25 -45 -50 -55 -55
-10 -6 -71 -9 -135 -8 l-117 1 -17 -38 c-33 -73 -20 -99 19 -39 l22 35 98 0
97 0 -60 -55 -60 -54 -81 -1 c-87 0 -96 -5 -87 -51 4 -23 7 -24 79 -21 60 3
74 7 70 18 -4 11 10 14 75 14 l80 0 -27 -35 c-56 -74 -59 -75 -283 -75 -111 0
-201 2 -201 5 0 3 9 24 20 45 22 44 54 127 103 268 l32 93 232 -2 233 -1 -37
-44z m-213 -234 c0 -6 -32 -10 -75 -10 -43 0 -75 4 -75 10 0 6 32 10 75 10 43
0 75 -4 75 -10z"/>
<path d="M1722 1029 c-84 -16 -155 -80 -200 -177 -21 -46 -24 -64 -18 -113 7
-68 22 -103 63 -140 56 -52 146 -79 265 -79 64 0 96 15 124 58 16 25 14 24
-21 -7 l-38 -33 -106 5 c-109 5 -153 17 -204 57 -100 78 -86 259 26 355 70 60
102 65 447 64 168 0 312 -4 318 -8 9 -6 6 -24 -13 -74 -14 -37 -25 -70 -25
-72 0 -3 20 -5 44 -5 l44 0 32 80 32 80 102 0 c55 0 106 -4 113 -8 8 -5 -15
-76 -77 -237 l-88 -230 -116 -3 c-64 -1 -116 -1 -116 1 0 3 11 35 25 71 l25
67 -47 -3 -47 -3 -26 -65 -26 -65 -117 -3 c-64 -1 -117 0 -117 2 0 3 11 36 25
73 l25 68 -27 -35 c-15 -19 -29 -46 -30 -60 -1 -14 -4 -34 -5 -45 -3 -19 3
-20 127 -20 l129 0 27 70 c24 64 29 70 58 73 l31 3 -21 -53 c-39 -96 -43 -93
104 -93 l129 0 93 245 c70 181 91 247 83 257 -11 14 -224 19 -243 5 -6 -4 -23
-40 -39 -79 -26 -67 -30 -73 -57 -73 -16 0 -29 1 -29 3 0 2 12 32 26 67 14 34
23 69 20 76 -4 12 -62 14 -323 13 -175 -1 -337 -5 -361 -10z"/>
<path d="M1690 984 c-46 -20 -106 -79 -132 -129 -27 -52 -29 -136 -3 -189 35
-72 142 -116 283 -116 50 0 51 1 111 67 34 37 61 71 61 75 0 4 -57 9 -126 10
-124 3 -127 4 -147 30 -24 32 -18 68 18 104 23 23 31 24 138 24 l113 0 35 38
c19 20 47 52 64 70 l29 32 -205 0 c-159 -1 -212 -4 -239 -16z m310 -15 c-12
-9 -11 -10 5 -4 11 4 36 9 55 12 l35 6 -35 -39 c-58 -64 -57 -63 -171 -64 -94
0 -110 -3 -134 -22 -59 -46 -65 -130 -14 -181 17 -17 36 -27 46 -24 15 3 14 6
-7 15 -20 9 -2 11 88 11 l113 -1 -17 -21 c-70 -84 -74 -87 -139 -87 -78 0
-170 24 -211 55 -18 14 -40 45 -50 71 -15 40 -16 52 -4 97 13 52 37 96 72 130
10 10 18 14 18 10 0 -4 4 -3 8 3 22 34 67 43 212 43 106 1 141 -2 130 -10z"/>
<path d="M2152 948 c-21 -55 -135 -350 -147 -381 -7 -16 0 -18 95 -15 l102 3
27 70 26 70 63 3 c34 2 62 -1 62 -6 0 -4 -11 -37 -25 -72 -14 -35 -25 -65 -25
-67 0 -2 44 -3 98 -3 l99 0 68 178 c37 97 76 198 86 225 l19 47 -99 0 -100 0
-29 -77 -30 -78 -66 -3 c-36 -2 -66 -1 -66 1 0 2 14 37 30 77 17 40 30 74 30
76 0 2 -45 4 -99 4 l-100 0 -19 -52z m188 24 c0 -5 -18 -53 -40 -108 -40 -100
-41 -145 0 -80 20 34 25 36 78 37 31 1 60 1 64 1 12 -2 26 23 48 91 l23 67 79
0 c72 0 79 -2 74 -17 -4 -10 -40 -102 -79 -205 l-72 -188 -77 0 c-43 0 -78 2
-78 4 0 2 11 28 25 58 40 86 39 88 -59 88 l-83 0 -28 -75 -27 -75 -79 0 c-43
0 -79 2 -79 5 0 3 11 28 25 55 14 27 25 55 25 62 0 7 16 51 36 98 19 47 37 93
39 103 2 10 10 33 17 52 l12 35 78 0 c43 0 78 -4 78 -8z"/>
<path d="M2411 775 c0 -29 1 -29 11 -7 7 13 17 21 25 18 7 -3 13 1 13 8 0 9
-10 13 -25 12 -21 -1 -25 -6 -24 -31z"/>
<path d="M2071 908 l-63 -68 -119 0 -118 0 -17 -31 c-19 -37 -12 -74 16 -89
12 -6 71 -9 147 -8 l128 3 47 129 c27 71 47 130 46 131 -2 1 -32 -29 -67 -67z
m-4 -89 l-33 -84 -129 0 c-109 0 -129 2 -139 17 -7 11 -7 26 0 45 l9 28 121 3
121 3 38 39 c21 22 40 38 42 37 1 -2 -12 -41 -30 -88z"/>
</g>
</svg>
