<?xml version="1.0" standalone="no"?>
<!DOCTYPE svg PUBLIC "-//W3C//DTD SVG 20010904//EN"
 "http://www.w3.org/TR/2001/REC-SVG-20010904/DTD/svg10.dtd">
<svg version="1.0" xmlns="http://www.w3.org/2000/svg"
 width="1440.000000pt" height="1080.000000pt" viewBox="0 0 1440.000000 1080.000000"
 preserveAspectRatio="xMidYMid meet">
<metadata>
Created by potrace 1.10, written by Peter Selinger 2001-2011
</metadata>
<g transform="translate(0.000000,1080.000000) scale(0.100000,-0.100000)"
fill="#000000" stroke="none">
<path d="M1785 10130 c-55 -17 -107 -74 -343 -374 -216 -274 -233 -299 -235
-338 l-2 -43 311 -3 c268 -2 313 0 324 13 16 19 30 19 30 0 0 -13 66 -15 538
-15 602 0 610 1 683 67 58 52 114 172 114 243 0 42 5 62 22 83 35 45 46 93 40
169 -8 89 -41 149 -100 181 -41 21 -53 22 -359 25 -196 2 -323 0 -335 -6 -12
-7 -57 -115 -133 -315 -63 -168 -117 -304 -119 -302 -2 3 -21 114 -43 247 -57
356 -68 372 -251 375 -62 1 -126 -2 -142 -7z m277 -40 c41 -32 56 -86 104
-378 24 -152 46 -277 48 -279 1 -2 61 150 132 337 l129 340 319 0 c299 0 322
-1 361 -20 56 -27 86 -83 93 -170 5 -73 -9 -117 -53 -164 -20 -22 -21 -29 -13
-63 8 -31 6 -48 -12 -96 -39 -103 -109 -175 -190 -197 -24 -6 -235 -9 -566 -8
l-529 3 -3 23 c-4 28 -5 27 -38 -3 l-27 -25 -300 0 -299 0 6 28 c9 35 10 37
264 359 127 163 230 285 255 302 41 29 45 30 168 31 111 0 129 -2 151 -20z"/>
<path d="M1749 10050 c-34 -27 -459 -557 -486 -604 -6 -11 -9 -24 -7 -28 3 -5
128 -8 278 -8 l272 0 39 40 c21 22 42 40 46 40 4 0 10 -18 14 -40 l7 -41 136
3 c92 2 136 7 135 14 -1 6 -20 125 -43 265 -45 284 -51 310 -80 357 l-20 32
-128 0 c-127 0 -128 0 -163 -30z m301 -33 c11 -25 37 -152 59 -293 22 -137 43
-257 47 -267 6 -15 -4 -17 -109 -17 l-116 0 -12 60 -12 60 -27 -38 c-64 -88
-44 -83 -338 -80 l-262 3 216 270 c118 149 233 287 254 308 l39 37 121 0 121
0 19 -43z"/>
<path d="M1872 9980 c0 -14 2 -19 5 -12 2 6 2 18 0 25 -3 6 -5 1 -5 -13z"/>
<path d="M1770 9732 c-86 -111 -95 -127 -92 -158 4 -28 7 -32 18 -23 11 9 12
15 3 26 -7 7 -9 17 -5 21 12 11 190 1 198 -12 12 -18 8 51 -10 164 l-17 104
-95 -122z m93 -24 l15 -78 -74 0 c-41 0 -74 2 -74 5 0 7 114 155 116 152 1 -1
9 -37 17 -79z"/>
<path d="M1803 9689 c-30 -35 -29 -39 7 -39 31 0 37 15 22 51 -6 13 -11 11
-29 -12z"/>
<path d="M1890 9840 c0 -5 11 -10 24 -10 14 0 28 5 31 10 4 6 -7 10 -24 10
-17 0 -31 -4 -31 -10z"/>
<path d="M1669 9728 c-7 -55 -6 -78 2 -78 5 0 9 20 9 45 0 41 -8 63 -11 33z"/>
<path d="M1558 9603 c6 -2 18 -2 25 0 6 3 1 5 -13 5 -14 0 -19 -2 -12 -5z"/>
<path d="M1728 9563 c6 -2 18 -2 25 0 6 3 1 5 -13 5 -14 0 -19 -2 -12 -5z"/>
<path d="M2369 9753 c-68 -179 -126 -331 -128 -336 -2 -5 145 -7 355 -5 l359
3 57 28 c42 21 64 40 87 76 47 73 66 136 53 178 -10 32 -8 38 24 80 19 24 37
56 40 70 10 39 -2 139 -21 171 -37 61 -42 62 -387 62 l-314 0 -125 -327z m769
291 c29 -20 49 -59 57 -116 9 -62 -7 -109 -53 -150 -32 -28 -36 -38 -33 -68 3
-29 5 -32 11 -15 7 15 9 10 9 -22 1 -28 -9 -61 -32 -104 -34 -67 -74 -102
-136 -119 -31 -9 -681 -15 -681 -7 0 2 43 118 96 258 53 140 105 278 116 307
l19 52 302 0 c258 0 306 -2 325 -16z"/>
<path d="M2666 10005 c-9 -26 -7 -32 5 -12 6 10 9 21 6 23 -2 3 -7 -2 -11 -11z"/>
<path d="M2950 9966 c0 -49 16 -54 18 -6 1 22 -3 40 -8 40 -6 0 -10 -15 -10
-34z"/>
<path d="M2600 9887 c0 -1 9 -10 19 -19 18 -15 19 -15 24 3 4 15 0 19 -19 19
-13 0 -24 -1 -24 -3z"/>
<path d="M2685 9878 c-3 -7 -12 -33 -21 -58 -20 -57 -26 -100 -14 -100 10 0
14 13 11 36 -1 6 17 25 38 42 39 31 43 32 139 32 l99 0 -4 -24 c-3 -13 0 -32
6 -43 9 -14 10 -3 8 51 -1 51 -6 71 -17 74 -12 4 -13 3 -3 -10 7 -8 10 -18 6
-21 -3 -4 -53 -7 -109 -7 -59 0 -106 -4 -109 -10 -4 -6 -11 -8 -16 -4 -6 4 -6
11 2 20 8 10 37 14 110 14 59 0 99 4 99 10 0 16 -219 13 -225 -2z"/>
<path d="M2978 9883 c12 -2 30 -2 40 0 9 3 -1 5 -23 4 -22 0 -30 -2 -17 -4z"/>
<path d="M3021 9825 c3 -2 19 -5 37 -7 18 -1 32 -8 32 -15 0 -6 5 -15 10 -18
6 -4 10 5 10 19 0 24 -3 26 -47 26 -25 0 -44 -2 -42 -5z"/>
<path d="M2883 9740 c0 -30 2 -43 4 -27 2 15 2 39 0 55 -2 15 -4 2 -4 -28z"/>
<path d="M2578 9748 c-2 -13 -1 -34 3 -48 5 -19 7 -14 8 23 1 50 -4 62 -11 25z"/>
<path d="M2598 9643 c-17 -36 -9 -114 9 -92 8 10 9 20 3 29 -6 8 -10 18 -10
23 0 4 53 7 118 7 105 0 121 2 140 20 12 12 22 25 22 30 0 6 -55 10 -134 10
l-135 0 -13 -27z m237 -3 c-3 -6 -52 -10 -111 -10 -63 0 -104 4 -104 10 0 6
44 10 111 10 71 0 108 -4 104 -10z"/>
<path d="M2895 9660 c3 -5 15 -10 26 -10 10 0 19 5 19 10 0 6 -12 10 -26 10
-14 0 -23 -4 -19 -10z"/>
<path d="M2860 9610 c-1 -8 -2 -21 -1 -29 2 -8 -2 -10 -11 -5 -9 5 -8 2 2 -11
14 -18 15 -18 18 3 2 12 1 30 -1 40 -4 13 -5 13 -7 2z"/>
<path d="M2805 9570 c-16 -7 -17 -9 -3 -9 9 -1 20 4 23 9 7 11 7 11 -20 0z"/>
<path d="M788 8913 c-91 -94 -128 -149 -128 -192 0 -54 13 -61 106 -61 l81 0
-78 -212 c-44 -117 -77 -219 -74 -226 3 -10 48 -12 192 -10 l188 3 55 146 c30
81 68 181 83 223 l28 76 52 0 c51 0 52 0 130 80 44 45 76 73 72 63 -67 -164
-215 -569 -211 -579 4 -12 69 -14 363 -14 400 0 360 -7 460 77 58 50 136 172
131 206 -3 21 -8 22 -86 22 -45 0 -82 2 -81 5 0 3 46 45 101 94 71 63 98 94
95 106 -3 11 13 39 40 72 69 82 103 135 103 157 l0 21 -783 0 -783 0 -56 -57z
m755 6 c-30 -52 -143 -188 -176 -213 -23 -18 -48 -26 -87 -28 l-55 -3 -80
-217 c-44 -119 -83 -220 -87 -223 -3 -3 -82 -6 -174 -6 -131 0 -168 3 -166 13
2 7 38 107 81 223 l77 210 -98 3 -98 3 0 33 c0 38 28 81 114 174 l58 62 355 0
354 0 -18 -31z m847 22 c0 -12 -83 -124 -132 -177 -28 -31 -36 -44 -24 -44 9
0 16 -3 15 -7 0 -5 -52 -53 -114 -108 -63 -55 -114 -103 -114 -107 -1 -5 46
-8 104 -8 l104 0 -36 -62 c-44 -75 -71 -106 -140 -159 l-51 -40 -349 0 c-191
0 -348 4 -348 8 0 5 60 167 134 361 l134 352 409 0 c232 0 408 -4 408 -9z"/>
<path d="M786 8838 c-50 -53 -76 -89 -76 -105 0 -23 2 -23 106 -23 97 0 106
-1 99 -17 -4 -10 -40 -106 -80 -213 -40 -107 -76 -203 -80 -212 -7 -17 4 -18
138 -18 l145 0 84 228 85 227 70 5 c39 3 78 11 87 19 24 20 146 173 146 183 0
4 -146 8 -324 8 l-324 0 -76 -82z m684 53 c0 -12 -36 -59 -89 -113 l-45 -48
-72 0 -72 0 -26 -67 c-14 -38 -52 -139 -84 -226 l-59 -158 -116 0 c-64 0 -117
1 -118 3 -1 3 -4 -6 82 228 58 160 65 172 70 140 5 -28 6 -23 6 23 l0 57 -108
0 c-60 0 -109 3 -109 7 0 9 98 123 124 145 19 16 51 18 319 18 163 0 297 -4
297 -9z"/>
<path d="M1383 8873 c9 -2 23 -2 30 0 6 3 -1 5 -18 5 -16 0 -22 -2 -12 -5z"/>
<path d="M951 8811 c-1 -35 1 -62 4 -60 11 11 15 77 6 100 -8 19 -10 12 -10
-40z"/>
<path d="M1330 8859 c0 -5 5 -7 10 -4 6 3 10 8 10 11 0 2 -4 4 -10 4 -5 0 -10
-5 -10 -11z"/>
<path d="M970 8721 c0 -5 14 -9 30 -9 17 1 30 5 30 10 0 4 -13 8 -30 8 -16 0
-30 -4 -30 -9z"/>
<path d="M1112 8713 c0 -10 -2 -27 -6 -38 -4 -11 1 -6 10 12 10 18 24 34 33
36 9 3 4 5 -11 6 -19 1 -27 -4 -26 -16z"/>
<path d="M1076 8603 c-6 -14 -5 -15 5 -6 7 7 10 15 7 18 -3 3 -9 -2 -12 -12z"/>
<path d="M1046 8523 c-6 -14 -5 -15 5 -6 7 7 10 15 7 18 -3 3 -9 -2 -12 -12z"/>
<path d="M1020 8460 c-6 -11 -8 -20 -6 -20 3 0 10 9 16 20 6 11 8 20 6 20 -3
0 -10 -9 -16 -20z"/>
<path d="M1968 8922 c-208 -1 -378 -4 -378 -6 0 -1 -56 -150 -125 -330 -69
-181 -125 -330 -125 -332 0 -2 147 -4 328 -4 l327 0 67 60 c53 48 118 134 118
156 0 2 -53 4 -117 4 l-118 1 70 64 c39 36 91 82 117 102 26 21 47 42 48 46 0
4 -86 7 -190 5 -147 -2 -190 0 -190 10 0 9 44 12 185 12 l184 0 35 30 c35 31
152 178 145 183 -2 1 -174 1 -381 -1z m342 -31 c0 -5 -32 -43 -71 -85 l-71
-76 -190 -2 -191 -3 -23 -60 c-13 -33 -23 -73 -23 -89 -1 -24 1 -27 14 -16 11
9 13 16 5 24 -7 7 1 22 27 48 l37 38 143 0 c79 0 143 -3 143 -7 0 -5 -38 -43
-84 -85 l-85 -78 -119 0 c-114 0 -119 -1 -129 -23 -12 -26 -2 -109 10 -89 5 7
6 21 2 31 -5 18 1 20 117 23 68 2 167 1 221 -2 l99 -5 -30 -41 c-16 -22 -49
-57 -72 -77 l-43 -36 -309 -3 c-170 -2 -312 -1 -314 1 -2 2 0 9 4 15 5 6 16
31 25 56 9 25 54 146 101 270 47 124 89 237 95 253 l11 27 350 0 c200 0 350
-4 350 -9z m-510 -225 c0 -3 -4 -8 -10 -11 -5 -3 -10 -1 -10 4 0 6 5 11 10 11
6 0 10 -2 10 -4z m130 -196 c0 -6 -43 -10 -110 -10 -67 0 -110 4 -110 10 0 6
43 10 110 10 67 0 110 -4 110 -10z"/>
<path d="M2206 8868 c3 -5 10 -6 15 -3 13 9 11 12 -6 12 -8 0 -12 -4 -9 -9z"/>
<path d="M1773 8858 c-12 -15 -24 -48 -18 -48 2 0 10 14 19 30 15 32 15 38 -1
18z"/>
<path d="M2027 8863 c18 -2 50 -2 70 0 21 2 7 4 -32 4 -38 0 -55 -2 -38 -4z"/>
<path d="M1716 8708 c10 -13 20 -25 21 -27 2 -2 3 8 3 22 0 21 -5 27 -22 27
-21 0 -21 0 -2 -22z"/>
<path d="M1686 8643 c-6 -14 -5 -15 5 -6 7 7 10 15 7 18 -3 3 -9 -2 -12 -12z"/>
<path d="M2038 8653 c7 -3 16 -2 19 1 4 3 -2 6 -13 5 -11 0 -14 -3 -6 -6z"/>
<path d="M1986 8638 c3 -4 11 -5 19 -1 21 7 19 12 -4 10 -11 0 -18 -5 -15 -9z"/>
<path d="M1679 8593 c0 -10 -2 -26 -4 -35 -2 -10 1 -20 6 -24 5 -3 9 13 9 35
0 40 -9 59 -11 24z"/>
<path d="M2528 8951 c-98 -39 -187 -127 -239 -235 -73 -154 -35 -328 91 -421
84 -61 144 -77 320 -82 l155 -5 63 64 63 63 -21 -49 c-11 -27 -19 -55 -16 -63
7 -18 381 -19 393 0 4 6 24 55 44 107 l36 95 48 3 c36 2 46 0 42 -10 -55 -130
-73 -188 -64 -197 7 -7 78 -11 198 -11 l186 0 140 367 c77 203 138 374 136
381 -4 10 -49 12 -197 10 l-191 -3 -44 -112 -44 -111 -43 -4 c-24 -2 -44 0
-44 4 0 3 18 52 39 106 28 72 36 103 28 111 -8 8 -166 11 -522 11 -471 -1
-514 -2 -557 -19z m1062 -10 c0 -5 -18 -56 -40 -112 -22 -57 -40 -107 -40
-111 0 -5 30 -8 66 -6 l67 3 45 118 45 117 179 0 c99 0 177 -3 175 -7 -3 -5
-64 -163 -137 -353 -72 -190 -135 -349 -139 -353 -10 -10 -351 -15 -351 -5 0
4 18 52 39 108 l39 100 -68 0 -68 0 -37 -97 c-21 -54 -41 -102 -45 -106 -5 -6
-285 -11 -354 -7 -3 0 13 46 35 101 22 56 38 103 37 105 -2 1 -30 -31 -63 -73
-33 -42 -76 -89 -97 -106 -38 -30 -38 -30 -156 -28 -235 4 -355 59 -419 189
-24 48 -28 70 -28 137 0 69 5 89 32 148 52 109 151 203 246 233 51 15 1037 20
1037 5z"/>
<path d="M2870 8920 l-315 -5 -49 -29 c-224 -132 -274 -426 -94 -556 64 -47
155 -70 296 -77 l123 -6 36 34 c19 19 62 68 95 109 l60 75 -185 3 -185 2 -27
28 c-55 55 -53 110 7 178 l30 34 173 0 172 0 54 58 c64 67 133 152 128 155 -2
1 -146 0 -319 -3z m261 -37 c-5 -10 -39 -48 -75 -85 l-66 -68 -169 0 c-192 0
-202 -3 -240 -83 -33 -68 -28 -101 23 -155 l45 -47 161 -5 161 -5 -55 -67
c-31 -37 -66 -72 -78 -79 -37 -20 -261 -6 -332 21 -71 27 -133 81 -158 137
-20 44 -25 127 -13 184 17 77 78 168 144 213 75 52 95 55 389 56 257 0 272 -1
263 -17z"/>
<path d="M3043 8883 c-7 -3 -13 -9 -13 -15 0 -7 5 -7 13 1 8 6 16 8 19 5 3 -3
8 -1 12 4 5 9 -10 12 -31 5z"/>
<path d="M2847 8863 c18 -2 50 -2 70 0 21 2 7 4 -32 4 -38 0 -55 -2 -38 -4z"/>
<path d="M2547 8716 c-3 -8 -2 -27 3 -43 8 -26 8 -25 9 15 1 43 -3 52 -12 28z"/>
<path d="M2570 8479 c0 -11 4 -18 10 -14 5 3 7 12 3 20 -7 21 -13 19 -13 -6z"/>
<path d="M3134 8602 c-67 -174 -125 -325 -129 -335 -7 -16 2 -17 145 -15 l152
3 40 108 40 107 99 0 99 0 -21 -52 c-40 -102 -59 -153 -59 -161 0 -4 66 -6
146 -5 l146 3 128 333 127 332 -148 0 -148 0 -40 -105 c-23 -58 -41 -110 -41
-115 0 -6 -40 -10 -91 -10 -88 0 -93 -1 -115 -27 -13 -16 -24 -23 -24 -16 0 6
4 14 9 18 9 5 101 232 101 248 0 4 -66 7 -147 7 l-148 0 -121 -318z m381 281
c-20 -51 -116 -299 -117 -303 -3 -22 4 -40 13 -35 6 4 8 13 5 20 -2 7 15 31
38 54 l42 41 90 0 91 0 45 118 45 117 122 3 c114 2 122 1 117 -15 -3 -10 -57
-150 -119 -311 l-113 -293 -119 0 c-66 0 -119 4 -118 8 2 4 15 41 30 82 20 56
28 69 34 55 4 -12 7 -1 7 29 l0 48 -121 -3 -121 -3 -41 -108 -42 -108 -119 0
c-92 0 -119 3 -117 13 0 7 52 147 114 311 l113 297 124 0 c114 0 124 -1 117
-17z"/>
<path d="M3929 8853 c-13 -16 -12 -17 4 -4 16 13 21 21 13 21 -2 0 -10 -8 -17
-17z"/>
<path d="M3413 8805 c-3 -9 -3 -18 -1 -21 3 -3 8 4 11 16 6 23 -1 27 -10 5z"/>
<path d="M3889 8764 c-5 -15 -8 -29 -5 -31 2 -2 8 10 14 26 13 38 5 41 -9 5z"/>
<path d="M3390 8722 c0 -10 -6 -24 -12 -31 -9 -9 -9 -12 -1 -7 6 3 13 -1 16
-11 3 -10 5 1 6 25 0 23 -1 42 -4 42 -3 0 -5 -8 -5 -18z"/>
<path d="M3856 8673 c-6 -14 -5 -15 5 -6 7 7 10 15 7 18 -3 3 -9 -2 -12 -12z"/>
<path d="M3780 8656 c0 -8 51 -13 56 -5 3 5 -9 9 -25 9 -17 0 -31 -2 -31 -4z"/>
<path d="M3610 8575 c0 -36 4 -55 9 -49 15 14 17 82 3 96 -9 9 -12 0 -12 -47z"/>
<path d="M3677 8623 c-10 -9 -9 -23 1 -23 5 0 9 7 9 15 0 17 -1 18 -10 8z"/>
<path d="M3320 8570 c-6 -11 -8 -20 -6 -20 3 0 10 9 16 20 6 11 8 20 6 20 -3
0 -10 -9 -16 -20z"/>
<path d="M3285 8480 c3 -5 12 -7 20 -3 21 7 19 13 -6 13 -11 0 -18 -4 -14 -10z"/>
<path d="M3643 8483 c9 -2 25 -2 35 0 9 3 1 5 -18 5 -19 0 -27 -2 -17 -5z"/>
<path d="M3192 8876 c-12 -18 -58 -70 -101 -115 l-78 -81 -176 0 -176 0 -27
-45 c-30 -52 -27 -83 11 -121 l25 -24 197 2 197 3 38 100 c21 55 57 147 79
203 22 57 39 105 37 107 -2 2 -14 -11 -26 -29z m-87 -213 l-53 -138 -196 -3
-195 -2 -16 30 c-15 29 -15 34 3 68 l19 37 176 3 177 2 67 70 c38 38 69 69 69
70 1 0 -22 -62 -51 -137z"/>
</g>
</svg>
